<?xml version="1.0" encoding="UTF-8"?>
<svg id="Layer_1" data-name="Layer 1" xmlns="http://www.w3.org/2000/svg" viewBox="0 0 900 969.42">
  <defs>
    <style>
      .cls-1 {
        fill: #37333d;
      }
    </style>
  </defs>
  <path class="cls-1" d="M712.26,263.68c-.26,55.9,.03,111.8-.26,167.7-.11,20.51,.78,41.08-2.3,61.52-7.03,46.56-23.16,89.08-54.26,125.26-20.93,24.35-43,47.53-67.36,68.49-.82,.71-1.69,1.37-3.26,2.66v-6.53c0-155.22,0-310.44,0-465.66q0-6.54,6.41-4.9c39.63,10.03,77.87,23.84,114.69,41.63,4.49,2.17,6.37,4.47,6.34,9.83Zm187.72,192.21c0,9.44-.59,18.87-1.49,30.12-3.48,43.6-13.1,85.88-28.6,125.67-14.71,37.77-29.92,66.49-47.85,90.38-49.7,66.21-110.17,123.93-179.74,171.57-59.3,40.61-123.86,72.83-191.88,95.76-.03,0-.05,.02-.08,.02-.07-.02-.18-.05-.34-.1-.16,.05-.27,.08-.34,.1-.02,0-.05-.01-.08-.02-68.02-22.94-132.58-55.16-191.88-95.76-69.57-47.64-130.05-105.37-179.74-171.57-17.93-23.89-33.14-52.61-47.85-90.38-15.5-39.79-25.12-82.07-28.6-125.67C.6,474.76,0,465.33,.02,455.89,.11,359.24,.1,257.15,0,152.31c0-5.07,2.46-9.82,6.61-12.73C77.14,90.16,154.73,53.12,237.39,29.41c33.27-9.54,68.63-16.95,105.1-22.02C377.37,2.55,415.1,.06,450,0c34.9,.06,72.63,2.55,107.5,7.4,36.47,5.07,71.83,12.48,105.1,22.02,82.66,23.7,160.26,60.75,230.78,110.16,4.15,2.91,6.62,7.66,6.61,12.73-.1,104.84-.11,206.93-.02,303.58ZM415.58,94.03c-22.26,.98-44.39,3.18-66.43,6.38-19.15,2.78-38.17,6.26-56.96,10.89-3.93,.97-8.21,1.92-9.19,7.29-6.91,37.66-15.55,74.95-23.85,112.31-14.02,63.15-29.68,125.94-41.12,189.66q-1.88-.66-1.13-4.61c.69-21.1,2.32-42.16,2.25-63.31-.22-68.59-.08-137.18-.08-205.77,0-10.07-2.85-12.3-12.78-9.77-2,.51-3.8,1.75-5.75,2.52-38.42,15.05-75.19,33.4-110.4,54.93-3.63,2.22-4.69,4.58-4.69,8.68,.12,85.3,.1,170.61,.09,255.91,0,13.07,.77,26.07,2.22,39.07,5.5,49.38,20.64,95.56,44.97,138.88,15.38,27.38,36.09,50.54,57.18,73.34,9.16,9.91,19.94,18.32,29.35,26.83,0-8.25-.02-18.53,0-28.81,.1-40.92,.21-81.84,.32-122.76,.2-1.19,.3-2.38,.35-3.55,.04,1.17,.16,2.34,.48,3.51,.49,5.13,.58,10.24,2.2,15.29,20.48,63.72,40.83,127.48,61.13,191.26,.94,2.95,2.65,4.86,5.05,6.62,32.74,23.91,67.3,44.81,103.67,62.71,7.92,3.9,15.96,7.54,24.64,11.63-.37-2.09-.46-3.03-.71-3.93-14.19-51.85-28.37-103.7-42.59-155.54-19.12-69.73-38.26-139.46-57.43-209.18-1.24-4.51-1.65-8.83-.34-13.53,4.38-15.66,8.43-31.41,12.54-47.14,13.36-51.08,26.69-102.17,40.05-153.25,16.8-64.23,33.56-128.46,50.54-192.64,1.18-4.47-.21-4.09-3.6-3.94Zm398.89,108.42c0-3.87-1.4-5.8-4.45-7.66-34.38-21.05-70.24-39.12-107.77-53.83-68.66-26.91-139.76-42.72-213.46-46.78-5.53-.31-6.53,1.22-6.52,6.37,.14,127.59,.11,255.17,.11,382.76,0,127.97,.01,255.94-.06,383.91,0,4.29-.06,6.25,5.29,3.79,67.84-31.1,129.44-71.57,184.26-122.25,30.67-28.35,59.94-58.29,83.28-92.88,38.32-56.79,57.99-120.38,58.81-188.85,1.07-88.18,.31-176.39,.5-264.58Z"/>
</svg>