<?xml version="1.0" standalone="no"?>
<!DOCTYPE svg PUBLIC "-//W3C//DTD SVG 20010904//EN"
 "http://www.w3.org/TR/2001/REC-SVG-20010904/DTD/svg10.dtd">
<svg version="1.0" xmlns="http://www.w3.org/2000/svg"
 width="969.000000pt" height="969.000000pt" viewBox="0 0 969.000000 969.000000"
 preserveAspectRatio="xMidYMid meet">
<metadata>
Created by potrace 1.14, written by Peter Selinger 2001-2017
</metadata>
<g transform="translate(0.000000,969.000000) scale(0.100000,-0.100000)"
fill="#000000" stroke="none">
<path d="M4508 9685 c-2 -2 -50 -6 -108 -9 -166 -9 -272 -16 -310 -22 -19 -3
-57 -7 -85 -10 -100 -8 -145 -13 -315 -40 -52 -8 -115 -17 -140 -20 -24 -3
-52 -9 -61 -14 -9 -5 -19 -7 -21 -4 -3 2 -26 0 -52 -6 -25 -5 -61 -13 -79 -15
-17 -3 -81 -17 -142 -30 -60 -14 -121 -27 -135 -29 -14 -3 -40 -10 -57 -15
-18 -5 -33 -8 -33 -5 0 3 -8 0 -17 -5 -10 -5 -31 -11 -48 -14 -41 -8 -55 -12
-170 -45 -55 -17 -104 -31 -110 -32 -5 -2 -102 -34 -215 -71 -113 -38 -212
-71 -220 -73 -8 -2 -28 -10 -45 -17 -16 -6 -34 -13 -40 -14 -9 -2 -192 -77
-265 -108 -14 -6 -27 -11 -30 -12 -3 -1 -36 -16 -74 -33 -38 -18 -75 -32 -82
-32 -8 0 -14 -4 -14 -10 0 -5 -5 -10 -12 -10 -6 0 -59 -23 -117 -52 -58 -28
-108 -52 -111 -53 -20 -4 -345 -179 -358 -192 -7 -7 -17 -13 -22 -13 -9 0
-172 -95 -265 -155 -27 -18 -86 -55 -130 -83 -44 -28 -85 -54 -90 -59 -6 -4
-39 -28 -75 -53 -79 -54 -83 -58 -104 -98 -16 -30 -16 -157 -13 -1695 2 -914
7 -1682 10 -1707 3 -25 8 -72 12 -105 3 -33 7 -71 10 -85 2 -14 6 -47 9 -75 4
-27 9 -61 11 -75 3 -14 14 -74 25 -135 16 -91 36 -179 84 -365 9 -34 55 -187
67 -220 48 -136 69 -192 125 -326 81 -197 203 -442 255 -516 11 -14 19 -29 19
-32 0 -10 102 -161 112 -164 4 -2 8 -8 8 -13 0 -11 215 -289 275 -355 5 -7 30
-36 55 -65 25 -29 54 -63 65 -75 11 -12 47 -53 80 -90 67 -77 459 -468 527
-526 24 -20 57 -50 74 -65 17 -15 52 -46 78 -68 26 -22 61 -52 77 -68 16 -15
34 -27 39 -27 4 0 10 -3 12 -7 4 -10 95 -86 178 -148 36 -27 67 -52 70 -55 3
-3 28 -21 55 -40 28 -19 55 -38 60 -42 41 -33 117 -86 215 -151 63 -42 120
-81 127 -87 7 -5 24 -15 38 -22 14 -6 25 -14 25 -18 0 -4 8 -11 18 -14 9 -4
33 -16 53 -29 67 -41 234 -140 264 -156 17 -9 32 -18 35 -21 5 -5 91 -51 195
-104 33 -17 62 -34 63 -38 2 -5 7 -8 12 -8 4 0 77 -33 162 -74 164 -79 266
-126 273 -126 2 0 28 -11 57 -24 30 -14 78 -34 108 -46 30 -12 66 -27 80 -33
14 -6 28 -11 33 -12 4 -2 9 -4 12 -5 3 -1 8 -3 13 -5 4 -1 16 -5 27 -9 11 -5
45 -17 75 -28 30 -12 64 -24 75 -29 11 -4 48 -17 82 -29 l62 -21 63 21 c35 11
72 24 83 29 11 5 54 21 95 36 41 14 84 31 95 36 11 4 45 18 75 29 30 11 64 25
75 30 11 5 58 25 105 45 105 45 134 58 235 105 44 21 87 40 95 44 65 27 450
234 543 293 20 13 37 21 37 18 0 -3 10 3 22 15 12 11 26 20 30 20 5 0 42 23
84 50 41 28 78 50 80 50 3 0 10 4 17 10 7 5 62 43 122 82 61 40 115 77 122 83
7 5 19 16 27 23 8 6 18 12 21 12 5 0 195 138 205 149 3 3 43 35 90 71 91 69
123 95 152 122 10 10 20 18 23 18 3 0 13 8 23 17 10 10 38 34 63 54 24 21 56
48 70 60 14 13 61 56 105 94 103 92 408 397 509 509 44 49 89 99 100 112 12
12 39 44 60 70 22 25 45 52 50 58 6 6 47 56 90 111 44 55 82 102 85 105 29 27
205 284 240 350 14 25 30 52 36 60 25 31 158 306 204 420 12 30 26 63 31 73 5
9 19 43 31 75 11 31 25 68 31 82 6 14 11 27 12 30 6 24 18 59 25 75 9 20 79
246 85 275 1 8 8 35 15 60 11 42 14 53 25 105 3 11 7 30 10 42 16 71 24 113
31 157 3 21 8 48 10 60 15 75 29 181 40 296 2 30 7 75 11 100 8 57 16 3301 8
3357 -4 26 -16 52 -35 71 -30 32 -263 192 -279 192 -5 0 -11 4 -13 8 -5 13
-292 188 -368 225 -14 6 -27 14 -30 18 -6 7 -294 160 -310 164 -3 1 -66 31
-140 67 -189 92 -315 147 -490 214 -36 14 -74 29 -85 34 -44 19 -281 103 -292
103 -7 0 -13 4 -13 9 0 5 -4 7 -8 4 -6 -3 -177 49 -177 55 0 0 -9 2 -20 4 -11
2 -51 13 -90 25 -67 21 -128 37 -169 46 -10 2 -33 8 -51 14 -30 10 -47 14
-103 26 -12 2 -59 13 -105 24 -45 10 -94 21 -109 24 -15 2 -63 12 -105 20
-103 20 -131 26 -172 31 -33 5 -64 10 -106 19 -26 5 -124 19 -150 21 -11 1
-54 7 -95 14 -41 6 -103 13 -136 15 -34 2 -66 6 -70 8 -5 3 -26 4 -47 4 -20
-1 -37 1 -37 4 0 3 -24 5 -53 6 -28 0 -95 4 -147 8 -92 8 -816 17 -822 11z
m26 -943 c3 -5 1 -24 -5 -43 -6 -19 -12 -43 -14 -54 -2 -11 -4 -22 -6 -25 -1
-3 -3 -9 -4 -15 -1 -5 -4 -17 -7 -25 -6 -17 -56 -205 -63 -235 -2 -11 -12 -47
-21 -80 -9 -33 -18 -68 -20 -77 -10 -46 -13 -55 -23 -80 -6 -16 -8 -28 -6 -28
2 0 0 -11 -5 -25 -5 -14 -12 -36 -14 -48 -3 -12 -27 -107 -56 -212 -49 -183
-55 -206 -65 -250 -6 -27 -24 -97 -79 -305 -44 -164 -83 -315 -91 -350 -2 -8
-4 -15 -5 -15 -1 0 -3 -7 -5 -15 -2 -8 -9 -33 -15 -55 -6 -22 -13 -49 -15 -61
-4 -17 -59 -230 -90 -349 -5 -16 -9 -35 -11 -42 -1 -6 -7 -27 -13 -45 -6 -18
-13 -44 -15 -58 -3 -14 -10 -43 -16 -65 -6 -22 -13 -47 -15 -55 -2 -8 -4 -17
-5 -20 -1 -3 -2 -8 -1 -12 0 -5 -4 -8 -10 -8 -5 0 -7 -5 -4 -10 4 -6 -5 -50
-18 -98 -14 -48 -29 -103 -33 -122 -11 -48 -11 -50 -14 -52 -1 -2 -3 -10 -5
-19 -1 -9 -11 -43 -20 -75 -9 -32 -18 -70 -20 -84 -2 -14 -4 -25 -5 -25 -1 0
-3 -7 -5 -15 -2 -8 -14 -51 -26 -95 -11 -44 -23 -87 -25 -95 -21 -88 -106
-409 -111 -420 -3 -8 -7 -21 -9 -29 -1 -8 -13 -51 -25 -95 -22 -82 -32 -172
-21 -191 4 -5 8 -19 10 -30 1 -11 12 -51 23 -90 10 -38 24 -86 29 -105 5 -19
23 -82 39 -140 38 -138 45 -163 46 -175 1 -5 5 -17 8 -25 3 -8 20 -67 36 -130
17 -63 38 -137 45 -165 50 -173 63 -221 71 -260 2 -5 12 -41 23 -80 28 -97 36
-129 34 -138 -1 -4 2 -7 6 -7 4 0 8 -8 8 -17 1 -10 25 -103 54 -208 29 -104
53 -198 54 -207 0 -10 3 -18 6 -18 4 0 7 -6 8 -12 0 -7 6 -31 12 -53 6 -22 13
-47 14 -55 2 -8 12 -46 23 -85 12 -38 24 -83 29 -100 4 -16 8 -34 10 -40 11
-37 72 -258 78 -286 8 -30 28 -104 34 -119 3 -8 6 -20 7 -26 6 -25 67 -250 72
-264 3 -8 7 -22 9 -31 4 -18 27 -101 49 -179 9 -30 17 -62 19 -70 2 -8 7 -28
11 -45 4 -16 10 -34 13 -40 4 -5 7 -16 8 -25 3 -21 9 -46 28 -111 9 -31 18
-65 20 -75 3 -11 9 -31 15 -46 6 -16 8 -28 5 -28 -4 0 -1 -7 6 -15 7 -8 10
-15 7 -15 -3 0 -1 -15 4 -32 18 -59 39 -139 39 -149 0 -6 -6 -6 -17 1 -10 5
-90 44 -178 86 -133 63 -236 117 -420 219 -19 10 -160 94 -200 118 -11 7 -58
37 -105 67 -48 30 -94 60 -102 65 -55 34 -134 90 -136 97 -2 4 -8 8 -13 8 -8
0 -63 39 -125 88 -20 16 -61 109 -70 161 -3 14 -8 29 -12 35 -3 6 -7 16 -8 23
-3 17 -34 114 -44 138 -8 18 -71 217 -76 240 -1 6 -20 66 -43 135 -22 69 -40
127 -40 130 0 3 -11 37 -24 75 -22 62 -80 242 -82 255 0 3 -13 42 -29 87 -15
45 -27 84 -26 85 0 2 -11 37 -25 78 -15 41 -28 82 -30 90 -2 8 -21 69 -43 135
-21 66 -47 145 -56 175 -9 30 -20 62 -23 70 -8 19 -14 40 -18 65 -2 11 -4 20
-5 20 -3 0 -9 42 -11 83 -2 23 -5 42 -8 42 -3 0 -6 -340 -6 -755 0 -415 -3
-755 -6 -755 -3 0 -15 8 -26 17 -11 10 -47 41 -79 68 -75 64 -223 212 -294
294 -30 35 -68 78 -85 95 -37 39 -168 203 -220 276 -22 30 -44 58 -50 62 -6 5
-6 8 0 8 6 0 5 4 -1 8 -32 20 -205 339 -279 512 -15 36 -36 84 -46 107 -11 24
-19 47 -19 52 0 5 -9 31 -20 57 -11 26 -22 54 -24 63 -2 9 -6 23 -9 31 -9 23
-44 141 -53 175 -4 17 -9 37 -11 45 -2 8 -5 21 -5 28 -1 6 -4 12 -8 12 -3 0
-6 8 -6 18 -1 17 -4 29 -24 117 -6 28 -13 64 -15 80 -2 17 -6 41 -10 55 -3 14
-8 41 -10 60 -2 19 -6 54 -9 78 -14 101 -16 122 -22 212 -4 52 -7 712 -8 1467
l-1 1372 29 30 c17 17 35 31 42 31 7 0 19 6 26 13 14 12 27 20 107 65 25 14
63 36 84 49 20 13 37 20 37 16 0 -5 4 -3 8 3 9 14 274 150 447 229 72 33 132
62 135 65 3 3 12 6 20 8 8 1 24 7 35 12 11 5 49 21 85 35 36 15 84 35 108 46
46 21 113 32 139 22 8 -3 19 -16 24 -30 8 -22 13 -2262 5 -2393 -13 -209 -17
-414 -8 -405 5 6 13 33 17 60 9 66 13 90 15 90 1 0 3 11 5 25 2 14 6 37 9 53
3 15 8 37 10 50 2 12 9 42 15 67 5 25 12 58 15 74 5 28 20 102 32 156 3 14 7
36 10 49 6 29 32 148 39 176 3 11 8 36 12 55 9 46 10 50 13 53 2 3 6 22 13 62
2 17 9 48 15 70 6 22 13 52 16 68 3 15 7 35 10 45 3 9 7 28 10 42 4 24 38 171
62 265 3 12 12 55 19 91 3 14 13 56 22 93 8 36 17 75 18 86 1 11 5 27 8 35 3
8 15 60 27 115 11 55 24 114 29 130 5 17 13 48 17 70 4 22 9 47 11 55 2 8 5
24 7 35 2 11 11 52 20 90 14 57 52 231 72 330 2 11 6 29 9 40 2 11 6 31 9 45
3 14 9 39 12 55 4 17 8 39 10 50 2 11 5 30 8 41 2 12 7 37 10 55 17 100 34
160 52 180 9 10 19 17 22 15 2 -3 21 2 42 9 21 7 51 16 67 19 15 2 60 12 98
20 86 18 124 26 150 30 31 5 108 18 130 22 11 3 36 6 55 9 19 3 46 7 59 10 13
2 49 7 80 10 31 4 67 8 81 11 14 2 50 7 80 10 30 2 73 7 95 9 22 3 83 8 135
11 52 3 96 7 97 8 7 6 143 5 147 -2z m901 -8 c103 -8 230 -22 230 -24 0 -1 20
-3 45 -6 25 -2 61 -6 80 -9 19 -3 64 -10 100 -15 36 -6 79 -13 95 -16 17 -3
39 -7 50 -9 39 -6 100 -16 120 -20 42 -9 202 -44 245 -55 25 -6 56 -13 70 -16
48 -10 211 -55 238 -65 15 -6 27 -10 27 -9 0 4 89 -22 150 -42 33 -11 67 -22
75 -23 59 -13 444 -156 570 -212 19 -8 49 -21 65 -28 122 -53 434 -204 445
-215 3 -3 23 -14 45 -25 40 -20 197 -107 225 -125 8 -5 34 -19 58 -31 23 -13
42 -26 42 -31 0 -4 6 -8 13 -8 8 0 24 -12 38 -26 l24 -26 1 -1211 c0 -667 -3
-1222 -8 -1235 -4 -13 -5 -21 0 -19 8 6 7 -48 -3 -293 -9 -218 -15 -295 -30
-363 -2 -12 -7 -44 -10 -72 -20 -173 -130 -567 -205 -740 -5 -11 -19 -42 -31
-70 -36 -84 -107 -226 -145 -295 -20 -36 -46 -82 -57 -102 -11 -21 -24 -38
-28 -38 -4 0 -10 -11 -13 -25 -4 -14 -11 -25 -16 -25 -6 0 -10 -5 -10 -11 0
-12 -114 -177 -179 -259 -151 -191 -227 -276 -451 -500 -166 -166 -250 -245
-399 -375 -25 -22 -53 -48 -62 -57 -9 -10 -19 -18 -23 -18 -4 0 -19 -11 -34
-25 -79 -75 -510 -395 -530 -395 -6 0 -12 -4 -14 -9 -5 -14 -400 -263 -468
-295 -8 -3 -46 -24 -85 -46 -99 -56 -430 -220 -444 -220 -6 0 -11 -4 -11 -9 0
-11 -45 -20 -57 -12 -5 3 -9 1712 -8 3879 0 3431 2 3874 15 3883 14 8 92 6
255 -7z"/>
<path d="M6195 7550 c-5 -15 -10 -4559 -6 -4723 1 -10 5 -17 10 -15 50 18 497
466 672 673 19 22 36 42 39 45 40 38 220 299 220 319 0 5 3 11 8 13 10 4 106
202 137 284 45 116 84 238 100 314 2 8 10 42 18 75 9 33 18 76 21 95 3 19 8
46 10 60 35 194 34 171 37 1362 2 1156 7 1068 -68 1103 -21 10 -74 35 -118 55
-98 46 -251 111 -267 114 -7 1 -29 9 -48 18 -133 62 -595 205 -721 225 -32 5
-38 2 -44 -17z"/>
</g>
</svg>
